<svg viewBox="0 0 28 21" preserveAspectRatio="none" xmlns="http://www.w3.org/2000/svg">
	<path d="M4 0H8V13H4Z" fill="#F1FA8C"/>
	<path d="M0 0H4V13H0ZM24 13H28V15H22V21H24Z" fill="#BFBEC3"/>
	<path d="M8 0H12V13H8ZM0 15V21H5V15ZM10 15H15V21H10ZM16 15V13H20V15Z" fill="#8BE9FD"/>
	<path d="M12 0H16V13H12Z" fill="#50FA7B"/>
	<path d="M16 0H20V13H16ZM12 13H8V15H12Z" fill="#FF79C6"/>
	<path d="M20 0H24V13H20Z" fill="#F55"/>
	<path d="M24 0H28V13H24ZM4 13H0V15H4Z" fill="#BD93F9"/>
	<path d="M4 13H8V15H4ZM15 15H12V13H16V15H20V13H24V21H28V15H22V21H15Z" fill="#000"/>
	<path d="M5 15H10V21H5Z" fill="#F8F8F2"/>
</svg>
