<svg viewBox="0 0 12 12" xmlns="http://www.w3.org/2000/svg">
	<defs>
		<filter id="blur" width="12" height="12" x="0" y="0" filterUnits="userSpaceOnUse">
			<feGaussianBlur stdDeviation="1 1"></feGaussianBlur>
		</filter>
	</defs>
	<path d="M2 4Q2 2 4 2H8Q10 2 10 4V8Q10 10 8 10H4Q2 10 2 8Z" fill="#FFF5"/>
	<path d="M1.5 4Q1.5 1.5 3.5 1.5H8Q10.5 1.5 10.5 4V8Q10.5 10.5 8 10.5H4Q1.5 10.5 1.5 8Z" fill="currentColor" filter="url(#blur)"/>
	<path d="M4 3Q3 3 3 4V4.5A0.1 0.1 0 0 0 4.5 4.5Q4.5 4 5 4H6A0.1 0.1 0 0 0 6 3M8.25 9A0.1 0.1 0 0 0 8.25 8H6.5A0.1 0.1 0 0 0 6.5 9" fill="#FFF6"/>
</svg>
