<svg viewBox="0 0 36 12" xmlns="http://www.w3.org/2000/svg">
	<path d="M0 12A2.5 2.5 0 0 1 2.5 9.5H5.5A2.5 2.5 0 0 1 8 12ZM6 5.5A2.5 2.5 0 0 1 3.5 3H1A5 5 0 0 0 6 8ZM0.5 0A0.5 0.5 0 0 0 3.5 0ZM5.5 1.5V4H12.5A2.5 2.5 0 0 0 10 1.5ZM8 5.5V8A2.5 2.5 0 0 0 10.5 5.5ZM10 9A0.5 0.5 0 0 0 10 11.5H15A5 5 0 0 0 20 6.5H17.5A2.5 2.5 0 0 1 15 9ZM13 6.5A0.5 0.5 0 0 0 16 6A0.5 0.5 0 0 0 13 6.5ZM17.5 0.5A5 5 0 0 0 22.5 5.5H25A0.5 0.5 0 0 0 25 3H22.5A2.5 2.5 0 0 1 20 0.5ZM13 0.5A2.5 2.5 0 0 0 15.5 3V0.5ZM25.5 1.5A0.5 0.5 0 0 0 22.5 1.5ZM24.5 7.5H21.5V10.5A0.5 0.5 0 0 0 24.5 10.5ZM26.5 8A2.5 2.5 0 0 1 29 5.5H35.5A2.5 2.5 0 0 1 33 8ZM28 9.5A0.5 0.5 0 0 0 28 12H30.5A0.5 0.5 0 0 0 30.5 9.5ZM35.5 9.5A2.5 2.5 0 0 1 33 12V9.5ZM28 3A0.5 0.5 0 0 0 30.5 2A0.5 0.5 0 0 0 28 3M35 3A2.5 2.5 0 0 0 32.5 0.5V3Z" fill="#292437"/>
</svg>
