<svg viewBox="0 0 12 12" xmlns="http://www.w3.org/2000/svg">
	<defs>
		<style>
			path {
				opacity: 0;
			}
			.filetype-unknown {
				opacity: 1;
			}
			:is(.html, .css, .js, .json, .yz, .txt) .filetype-unknown {
				opacity: 0;
			}
			.html .filetype-html,
			.css .filetype-css,
			.js .filetype-js,
			.json .filetype-json,
			.yz .filetype-yz,
			.txt .filetype-txt {
				opacity: 1;
			}
		</style>
	</defs>
	<path class="filetype-unknown" d="M2.5 1V11H9.5V4.5L6 1V4.5H9.5L6 1Z" fill="none" stroke="currentColor" stroke-linejoin="round" stroke-linecap="round"/>
	<path class="filetype-css" d="M10 7Q11 7 11 6A5 5 0 1 0 6 11C7 11 8 10 7 9C6 8 7 7 8 7ZM3 8A1 1 0 0 0 5 7.5A1 1 0 0 0 3 8M2.5 4.5A1 1 0 0 0 4.5 5A1 1 0 0 0 2.5 4.5M6 2A1 1 0 0 0 6 4A1 1 0 0 0 6 2M9.5 4.5A1 1 0 0 0 7.5 5A1 1 0 0 0 9.5 4.5" fill="currentColor" fill-rule="evenodd"/>
	<path class="filetype-html" d="M3 4H1V10A1 1 0 0 0 3 10V1H11V10A1 1 0 0 1 10 11H2M5 3V5H6V3ZM5 7H9M5 9H9M8 3H9M8 5H9" stroke="currentColor" fill="none" stroke-linecap="round" stroke-linejoin="round"/>
	<path class="filetype-js" d="M1 1V11H11V1ZM6 4.5H4.5V8.5C4.5 9.5 3.5 9.5 3 8.5L2 9.5C3 11.5 6 11 6 8.5ZM6 9.5L7 8.5C7.5 9.5 9 9.5 9 9C9 8 6.5 8.5 6.5 6.5C6.5 4 9.5 4 10.5 5.5L9.5 6.5C9 5.5 8 6 8 6.5C8 7 10.5 7 10.5 9C10.5 11 7 11.5 6 9.5M1.5 -2.5" fill="currentColor" fill-rule="evenodd"/>
	<path class="filetype-json" d="M4.5 1.5Q3 1.5 3 3V4Q3 5.5 1.5 6Q3 6.5 3 8V9Q3 10.5 4.5 10.5M7.5 1.5Q9 1.5 9 3V4Q9 5.5 10.5 6Q9 6.5 9 8V8.5Q9 10.5 7.5 10.5" fill="none" stroke="currentColor" stroke-linejoin="round" stroke-linecap="round" stroke-width="1.5"/>
	<path class="filetype-yz" d="M7.5 3A1 1 0 0 1 4.5 3V0A2.5 2.5 0 0 0 2 2.5V4A2.5 2.5 0 0 0 4.5 6.5V9H7.5V6.5A2.5 2.5 0 0 0 10 4V2.5A2.5 2.5 0 0 0 7.5 0ZM4.5 10.5A1 1 0 0 0 7.5 10.5Z" fill="currentColor"/>
	<path class="filetype-txt" d="M2.5 1V11H9.5V4.5L6 1V4.5H9.5L6 1ZM4.5 6H7.5M4.5 9H7.5M4.5 7.5H7.5" fill="none" stroke="currentColor" stroke-linejoin="round" stroke-linecap="round"/>
</svg>
