<svg viewBox="0 0 12 12" xmlns="http://www.w3.org/2000/svg">
	<path d="M7.5 10.5H8.5V9.5H11V10.5H12V9Q12 8 11.5 8Q11.5 6.5 10.5 6.5H9Q8 6.5 8 8Q7.5 8 7.5 9ZM8 8.5A0.1 0.1 0 0 0 8.5 9A0.1 0.1 0 0 0 8 8.5M11 9A0.1 0.1 0 0 0 11.5 8.5A0.1 0.1 0 0 0 11 9M11 8Q11 7 10.5 7H9Q8.5 7 8.5 8ZM6.5 10.5H5.5V9.5H2V10.5H1V9.5C0 9.5 0 8.5 0.5 8.5V7.5Q0.5 7 1 7V0.5L1.5 1V3.5Q2 2.5 2.5 2.5H5Q5.5 2.5 6 3.5V1L6.5 0.5V7Q7 7 7 7.5V8.5C7.5 8.5 7.5 9.5 6.5 9.5ZM1 7.5V8.5H1.5Q2 8.5 2 8V7.5ZM6.5 7.5V8.5H6Q5.5 8.5 5.5 8V7.5ZM2.5 8.75V9H5V8.75ZM5 8.5H2.5V8.25H5M5 8H2.5V7.75H5ZM5 7.25V7.5H2.5V7.25ZM1.5 5.25Q1.5 5.75 2 5.75H3.5V4H2Q1.5 4 1.5 4.5ZM4 5.75V4H5.5Q6 4 6 4.5V5.25Q6 5.75 5.5 5.75Z" fill="currentColor" fill-rule="evenodd"/>
</svg>
