<svg viewBox="0 0 36 12" xmlns="http://www.w3.org/2000/svg">
	<text x=".3" y="11" textLength="34.9" font-family="monospace" font-size="14" fill="#00000001">YOZO</text>
	<path d="M6 3A1 1 0 0 1 3 3V0A2.5 2.5 0 0 0 0.5 2.5V4A2.5 2.5 0 0 0 3 6.5V9H6V6.5A2.5 2.5 0 0 0 8.5 4V2.5A2.5 2.5 0 0 0 6 0ZM3 10.5A1 1 0 0 0 6 10.5ZM17.5 4A1 1 0 0 0 9.5 4V8A1 1 0 0 0 17.5 8M12 8A1 1 0 0 0 15 8V4A1 1 0 0 0 12 4ZM35 4A1 1 0 0 0 27 4V8A1 1 0 0 0 35 8M29.5 8A1 1 0 0 0 32.5 8V4A1 1 0 0 0 29.5 4ZM19.5 0A1 1 0 0 0 19.5 2.5H26A2.5 2.5 0 0 0 23.5 0ZM25 4A2.5 2.5 0 0 1 22.5 6.5V4M21.5 5.5A2.5 2.5 0 0 0 19 8H21.5M18.5 9.5A2.5 2.5 0 0 0 20.5 12H25A1 1 0 0 0 25 9.5Z" fill="currentColor" fill-rule="evenodd"/>
</svg>
